<svg xmlns="http://www.w3.org/2000/svg" version="1.1" xmlns:xlink="http://www.w3.org/1999/xlink" width="1500" height="1273"><svg xmlns="http://www.w3.org/2000/svg" width="1500" height="1273" viewBox="0 0 1500 1273"><svg viewBox="0 0 292 248" data-background-color="#ffffff" height="1273" width="1500" xmlns="http://www.w3.org/2000/svg" xmlns:xlink="http://www.w3.org/1999/xlink" transform="translate(-2.234 -2.053)"><svg viewBox="0 0 291.13 247.2" height="247.2" width="291.13" transform="translate(.435 .4)"><svg viewBox="0 0 291.13 247.2" height="247.2" width="291.13"><svg viewBox="0 0 291.13 247.2" height="247.2" width="291.13"><svg viewBox="0 0 291.13 247.2" height="247.2" width="291.13"><svg viewBox="0 0 291.13 247.2" height="247.2" width="291.13"><svg width="291.13" viewBox="2.2 -32.7 39.1 33.2" height="247.2" data-palette-color="#1e55b3"><path d="M3.85.5q-.95 0-1.3-.55-.35-.55-.35-1.2 0-3.1.63-7.1.62-4 1.52-7.95.8-3.35 1.78-6.25.97-2.9 1.72-4.75 1.1-2.6 2.53-3.98 1.42-1.37 3.32-1.37 1.4 0 2.5.92 1.1.93 1.3 3.33.3 2.9.7 5.85.4 2.95.9 5.37.5 2.43 1.05 3.73.45 1.15 1.3 1.15.95 0 1.65-1.2.65-1.1 1.4-3 .75-1.9 1.48-4.03.72-2.12 1.27-3.87.65-1.9 1.48-3.83.82-1.92 2.12-3.2 1.3-1.27 3.25-1.27 1.8 0 2.58 1.22.77 1.23.77 3.88 0 2.05-.15 4.3-.05 1.3-.12 2.67-.08 1.38-.08 2.83 0 2.25.23 4.75.22 2.5.9 4.7.67 2.2 2.02 3.7.4.35.73.8.32.45.32 1 0 1.25-1.32 2.27Q38.65.45 36.95.45q-1.55 0-2.3-1-.75-1-1.2-2.7-.5-2.1-.7-4.5-.2-2.4-.2-4.65 0-3.6.28-6.63.27-3.02.27-4.47 0-.8-.15-1.18-.15-.37-.75-.37-.7 0-1.17.62-.48.63-.78 1.73-.65 2.1-1.45 4.5-.8 2.4-1.67 4.7-.88 2.3-1.88 4.1-1.15 2.1-2.47 2.82-1.33.73-2.68.73-2.1 0-3.17-1.33-1.08-1.32-1.58-2.92-.65-2.15-1.2-5.63-.55-3.47-.8-7.82-.1-1.85-1.2-1.85-1.2 0-1.9 1.8-.6 1.8-1.15 4.22-.55 2.43-.88 5.05-.32 2.63-.32 5.18 0 2.15.18 3.75.17 1.6.17 3 0 1-.77 1.65Q6.7-.1 5.65.2 4.6.5 3.85.5Z" fill="#1e55b3" class="wordmark-text-0" data-fill-palette-color="primary"></path></svg></svg></svg></svg></svg></svg></svg></svg><style>@media (prefers-color-scheme: light) { :root { filter: none; } }
@media (prefers-color-scheme: dark) { :root { filter: none; } }
</style></svg>